<svg width="124" height="37" viewBox="0 0 124 37" fill="none" xmlns="http://www.w3.org/2000/svg">
<path d="M36.8701 11.6433H39.8701V25.6686H36.8701V11.6433ZM41.0601 20.373C41.0601 16.9043 42.9001 14.8346 45.7401 14.8346C48.5801 14.8346 50.4201 16.9043 50.4201 20.373C50.4201 23.8418 48.6201 25.923 45.7401 25.923C42.8601 25.923 41.0601 23.8996 41.0601 20.373ZM47.4101 20.373C47.4101 18.4652 46.7601 17.3436 45.7401 17.3436C44.7201 17.3436 44.0801 18.4999 44.0801 20.373C44.0801 22.2461 44.7101 23.3793 45.7401 23.3793C46.7701 23.3793 47.4101 22.3155 47.4101 20.3846V20.373ZM51.5501 26.3508H54.4301C54.5672 26.7029 54.7989 26.9944 55.0908 27.1819C55.3827 27.3694 55.7192 27.4429 56.0501 27.3915C57.1901 27.3915 57.7901 26.6746 57.7901 25.634V23.6915H57.7301C57.4911 24.2868 57.1032 24.7856 56.6166 25.1237C56.13 25.4617 55.5669 25.6233 55.0001 25.5877C52.8101 25.5877 51.3601 23.6568 51.3601 20.3383C51.3601 17.0199 52.7401 14.9271 55.0401 14.9271C55.6247 14.9006 56.2023 15.0813 56.6956 15.445C57.1889 15.8087 57.5743 16.3381 57.8001 16.9621V15.0311H60.8001V25.553C60.8001 28.0852 58.8701 29.6577 56.0201 29.6577C53.3701 29.6577 51.7201 28.2818 51.5501 26.3624V26.3508ZM57.8001 20.3615C57.8001 18.6733 57.1301 17.6096 56.0701 17.6096C55.0101 17.6096 54.3601 18.6618 54.3601 20.3615C54.3601 22.0611 55.0001 23.0208 56.0701 23.0208C57.1401 23.0208 57.8001 22.0843 57.8001 20.373V20.3615ZM61.9301 20.3615C61.9301 16.8927 63.7701 14.823 66.6101 14.823C69.4501 14.823 71.3001 16.8927 71.3001 20.3615C71.3001 23.8302 69.5001 25.9115 66.6101 25.9115C63.7201 25.9115 61.9301 23.8996 61.9301 20.373V20.3615ZM68.2801 20.3615C68.2801 18.4536 67.6301 17.3321 66.6101 17.3321C65.5901 17.3321 65.0001 18.4999 65.0001 20.3846C65.0001 22.2693 65.6301 23.3908 66.6501 23.3908C67.6701 23.3908 68.2801 22.3155 68.2801 20.3846V20.3615ZM72.4401 12.5105C72.4322 12.1603 72.5145 11.8153 72.6764 11.5192C72.8384 11.223 73.0727 10.9892 73.3497 10.8473C73.6267 10.7053 73.9339 10.6617 74.2324 10.7219C74.5309 10.782 74.8072 10.9434 75.0263 11.1853C75.2455 11.4273 75.3975 11.7391 75.4632 12.0811C75.5289 12.4231 75.5053 12.7799 75.3953 13.1064C75.2854 13.4329 75.0941 13.7143 74.8457 13.9149C74.5974 14.1155 74.303 14.2264 74.0001 14.2333C73.7993 14.2493 73.5978 14.217 73.4083 14.1386C73.2187 14.0602 73.0453 13.9374 72.8988 13.7778C72.7523 13.6182 72.6359 13.4252 72.557 13.2111C72.478 12.9971 72.4382 12.7664 72.4401 12.5336V12.5105ZM72.4401 15.0543H75.4401V25.6686H72.4401V15.0543ZM86.3301 20.3615C86.3301 23.8302 85.0001 25.8074 82.7201 25.8074C82.1355 25.8507 81.5534 25.6855 81.0526 25.334C80.5518 24.9824 80.1565 24.4615 79.9201 23.8418H79.8601V29.068H76.8601V15.0311H79.8601V16.9274H79.9201C80.1455 16.2974 80.5333 15.7629 81.0307 15.3967C81.5281 15.0306 82.111 14.8504 82.7001 14.8808C85.0001 14.9271 86.3701 16.9158 86.3701 20.3846L86.3301 20.3615ZM83.3301 20.3615C83.3301 18.6733 82.6601 17.598 81.6101 17.598C80.5601 17.598 79.8901 18.6849 79.8801 20.3615C79.8701 22.038 80.5601 23.1133 81.6101 23.1133C82.6601 23.1133 83.3301 22.0611 83.3301 20.3846V20.3615ZM91.4801 14.8115C93.9701 14.8115 95.4801 16.1758 95.5501 18.3611H92.8201C92.8201 17.6096 92.2801 17.1355 91.4501 17.1355C90.6201 17.1355 90.2501 17.5055 90.2501 18.049C90.2501 18.5924 90.5801 18.7658 91.2501 18.9277L93.1701 19.3786C95.0001 19.8296 95.7801 20.6852 95.7801 22.2924C95.7801 24.4893 94.0501 25.8999 91.5001 25.8999C88.9501 25.8999 87.2801 24.4893 87.1501 22.3271H90.0401C90.1301 23.1133 90.6701 23.5758 91.5501 23.5758C92.4301 23.5758 92.8301 23.2405 92.8301 22.6855C92.8301 22.1305 92.5501 22.0149 91.8301 21.8415L90.1001 21.4136C88.3101 20.9858 87.3701 19.8874 87.3701 18.2686C87.3901 16.1874 89.0001 14.8346 91.4801 14.8346V14.8115ZM105.79 25.6455H102.9V23.6683H102.84C102.681 24.3321 102.331 24.9131 101.847 25.3149C101.363 25.7166 100.775 25.9149 100.18 25.8768C99.7243 25.9067 99.2683 25.8232 98.8428 25.6319C98.4173 25.4405 98.0323 25.1459 97.7138 24.7677C97.3953 24.3896 97.1506 23.9367 96.9965 23.4399C96.8423 22.943 96.7822 22.4137 96.8201 21.8877V15.0311H99.8201V21.0899C99.8201 22.3502 100.38 23.0208 101.31 23.0208C101.528 23.0213 101.744 22.968 101.943 22.8643C102.141 22.7606 102.319 22.6089 102.463 22.4195C102.606 22.23 102.714 22.0071 102.777 21.766C102.84 21.5246 102.859 21.2705 102.83 21.0205V15.0311H105.83L105.79 25.6455ZM107.24 15.0311H110.14V17.0777H110.2C110.359 16.4227 110.702 15.8471 111.174 15.4413C111.646 15.0354 112.222 14.822 112.81 14.8346C113.409 14.7792 114.003 14.9863 114.476 15.4148C114.948 15.8433 115.264 16.4617 115.36 17.1471H115.42C115.601 16.4544 115.977 15.8513 116.488 15.4326C116.998 15.0139 117.615 14.8035 118.24 14.8346C118.648 14.8187 119.054 14.9023 119.432 15.0799C119.811 15.2574 120.152 15.5251 120.435 15.8653C120.718 16.2055 120.936 16.6108 121.075 17.0547C121.213 17.4986 121.27 17.9714 121.24 18.4421V25.6686H118.24V19.3671C118.24 18.2108 117.79 17.679 116.95 17.679C116.763 17.6771 116.577 17.7217 116.406 17.8098C116.235 17.8979 116.082 18.0274 115.958 18.1897C115.834 18.3519 115.741 18.5429 115.686 18.75C115.631 18.9572 115.616 19.1755 115.64 19.3902V25.6686H112.79V19.3208C112.79 18.2571 112.34 17.679 111.52 17.679C111.331 17.6791 111.143 17.7256 110.971 17.8154C110.798 17.9053 110.643 18.0366 110.518 18.2004C110.392 18.3643 110.298 18.5571 110.241 18.7663C110.185 18.9753 110.167 19.1958 110.19 19.4133V25.6686H107.19L107.24 15.0311Z" fill="#B4B7C9"/>
<path d="M28.4796 12.2792C27.9707 10.9337 27.2972 9.67983 26.4796 8.55603C25.2711 6.84518 23.7629 5.44964 22.0543 4.46129C20.3457 3.47295 18.4754 2.91419 16.5666 2.8218C14.6578 2.7294 12.7537 3.10546 10.9796 3.92524C9.20558 4.74501 7.60178 5.98991 6.27381 7.578C4.94583 9.16607 3.92378 11.0613 3.27493 13.1391C2.62608 15.2167 2.36513 17.4298 2.50927 19.6324C2.65342 21.8352 3.19937 23.9776 4.11121 25.9187C5.02305 27.86 6.2801 29.5558 7.79962 30.8948C8.77462 31.7711 9.85197 32.4835 10.9996 33.0107C12.6086 33.7732 14.3307 34.1658 16.0696 34.167C19.659 34.1578 23.0988 32.5035 25.6351 29.5666C28.1713 26.6297 29.597 22.65 29.5996 18.4998C29.6022 16.359 29.2209 14.2409 28.4796 12.2792ZM16.0596 6.00071C17.6212 6.00052 19.1639 6.39515 20.5796 7.15696C20.2344 7.32944 19.8714 7.44991 19.4996 7.51541C18.2762 7.72017 17.1429 8.3769 16.2688 9.38757C15.3947 10.3982 14.8267 11.7087 14.6496 13.1232C14.5719 13.9165 14.2598 14.6546 13.7661 15.2128C13.2724 15.771 12.6273 16.1151 11.9396 16.1873C10.7162 16.3921 9.58288 17.0488 8.70879 18.0595C7.8347 19.0702 7.26671 20.3805 7.08962 21.7951C7.02966 22.5494 6.75131 23.2583 6.29962 23.807C5.52027 21.903 5.17017 19.8018 5.28189 17.6993C5.39361 15.5968 5.96352 13.5611 6.93859 11.7816C7.91365 10.0023 9.26219 8.53697 10.8587 7.52216C12.4552 6.50736 14.2478 5.97602 16.0696 5.97759L16.0596 6.00071ZM7.78962 26.5935C7.90962 26.4663 8.02962 26.3507 8.14962 26.212C9.03927 25.2147 9.61033 23.8982 9.76962 22.4773C9.8342 21.6785 10.1426 20.9325 10.6396 20.3729C11.1179 19.7973 11.7616 19.4436 12.4496 19.3785C13.673 19.1738 14.8063 18.517 15.6804 17.5063C16.5545 16.4957 17.1225 15.1853 17.2996 13.7707C17.3429 12.9353 17.6529 12.1483 18.1696 11.5623C18.6597 10.9979 19.3095 10.6571 19.9996 10.6026C21.1235 10.4238 22.1717 9.84607 22.9996 8.94916C23.9423 9.85343 24.7409 10.9413 25.3596 12.1635C25.3216 12.2228 25.278 12.2772 25.2296 12.3254C24.7523 12.9061 24.1094 13.2675 23.4196 13.3429C22.1949 13.5441 21.0599 14.1997 20.1852 15.2109C19.3106 16.2223 18.7436 17.5347 18.5696 18.9507C18.4991 19.7467 18.1928 20.49 17.7026 21.0547C17.2123 21.6196 16.5683 21.971 15.8796 22.0495C14.6526 22.2526 13.5151 22.9081 12.6359 23.9183C11.7568 24.9287 11.1829 26.2398 10.9996 27.6573C10.9458 28.2223 10.7779 28.765 10.5096 29.2413C9.48361 28.537 8.56471 27.6425 7.78962 26.5935ZM16.0596 31.0567C15.0449 31.0579 14.035 30.8944 13.0596 30.571C13.3933 29.8518 13.6102 29.068 13.6996 28.2585C13.7697 27.4643 14.0746 26.7223 14.5628 26.1579C15.051 25.5934 15.6927 25.2408 16.3796 25.1598C17.6048 24.9573 18.7404 24.3016 19.6165 23.2907C20.4925 22.2799 21.062 20.9681 21.2396 19.552C21.3097 18.7577 21.6146 18.0158 22.1028 17.4513C22.591 16.8868 23.2327 16.5343 23.9196 16.4532C24.8416 16.3146 25.7204 15.9176 26.4796 15.297C26.9012 17.1445 26.9511 19.0792 26.6256 20.9525C26.3001 22.8259 25.6077 24.5882 24.6017 26.1042C23.5957 27.6201 22.3028 28.8495 20.822 29.698C19.3413 30.5464 17.7122 30.9914 16.0596 30.9988V31.0567Z" fill="#B4B7C9"/>
</svg>
